<?xml version="1.0" encoding="utf-8"?>
<!-- Generator: Adobe Illustrator 15.1.0, SVG Export Plug-In . SVG Version: 6.00 Build 0)  -->
<!DOCTYPE svg PUBLIC "-//W3C//DTD SVG 1.1//EN" "http://www.w3.org/Graphics/SVG/1.1/DTD/svg11.dtd">
<svg version="1.1" id="Layer_1" xmlns="http://www.w3.org/2000/svg" xmlns:xlink="http://www.w3.org/1999/xlink" x="0px" y="0px"
	 width="286.181px" height="76.237px" viewBox="0 0 286.181 76.237" enable-background="new 0 0 286.181 76.237"
	 xml:space="preserve">
<g>
	<defs>
		<rect id="SVGID_1_" y="0" width="286.181" height="76.237"/>
	</defs>
	<clipPath id="SVGID_2_">
		<use xlink:href="#SVGID_1_"  overflow="visible"/>
	</clipPath>
	<path clip-path="url(#SVGID_2_)" fill="#D13239" d="M154.107,17.125c0,2.43-1.976,4.405-4.406,4.405
		c-2.429,0-4.404-1.975-4.404-4.405s1.976-4.405,4.404-4.405C152.132,12.72,154.107,14.695,154.107,17.125"/>
	<path clip-path="url(#SVGID_2_)" fill="#D13239" d="M169.275,17.125c0,2.43-1.977,4.405-4.405,4.405
		c-2.431,0-4.406-1.975-4.406-4.405s1.976-4.405,4.406-4.405C167.299,12.72,169.275,14.695,169.275,17.125"/>
	<path clip-path="url(#SVGID_2_)" fill="#D13239" d="M161.445,4.405c0,2.424-1.976,4.399-4.405,4.399
		c-2.431,0-4.399-1.975-4.399-4.399c0-2.436,1.969-4.405,4.399-4.405C159.47,0,161.445,1.969,161.445,4.405"/>
	<path clip-path="url(#SVGID_2_)" fill="#FFFFFF" d="M34.95,66.027c0.816-0.626,1.534-0.987,2.154-1.08
		c0.626-0.098,1.19-0.036,1.687,0.185c0.503,0.221,0.988,0.577,1.454,1.081c0.467,0.496,0.957,1,1.448,1.496
		c-2.43,2.81-5.086,4.799-7.958,5.951c-2.871,1.154-6.096,1.798-9.652,1.921c-3.319,0-6.424-0.62-9.332-1.871
		c-2.896-1.252-5.449-2.958-7.633-5.111c-2.191-2.153-3.921-4.682-5.197-7.59C0.633,58.106,0,54.995,0,51.682
		c0-3.307,0.633-6.418,1.921-9.32c1.276-2.901,3.006-5.436,5.197-7.59c2.184-2.153,4.737-3.859,7.633-5.111
		c2.908-1.245,6.013-1.871,9.332-1.871c3.556,0.123,6.781,0.76,9.652,1.921c2.872,1.159,5.528,3.11,7.958,5.859
		c-0.491,0.564-0.981,1.074-1.448,1.546c-0.466,0.467-0.951,0.829-1.454,1.074c-0.497,0.252-1.061,0.325-1.687,0.239
		c-0.62-0.099-1.338-0.454-2.154-1.08c-1.626-1.252-3.375-2.184-5.246-2.809c-1.872-0.626-3.743-0.94-5.621-0.94
		c-2.503,0-4.865,0.467-7.074,1.405c-2.221,0.939-4.179,2.221-5.863,3.841c-1.678,1.626-3.016,3.528-3.985,5.719
		c-0.964,2.185-1.448,4.559-1.448,7.117c0,2.571,0.484,4.934,1.448,7.124c0.969,2.19,2.307,4.093,3.985,5.719
		c1.684,1.626,3.642,2.902,5.863,3.841c2.209,0.938,4.571,1.405,7.074,1.405c1.878,0,3.749-0.313,5.621-0.932
		C31.575,68.213,33.324,67.273,34.95,66.027"/>
	<path clip-path="url(#SVGID_2_)" fill="#FFFFFF" d="M92.553,69.954c0.632,0.258,1.08,0.626,1.362,1.13
		c0.283,0.503,0.424,1.03,0.424,1.595v2.811h-8.063V49.338c0-2.116-0.282-4.086-0.847-5.896c-0.558-1.81-1.405-3.374-2.527-4.688
		c-1.123-1.314-2.559-2.332-4.314-3.05c-1.743-0.712-3.835-1.073-6.277-1.073c-1.742,0-3.43,0.282-5.056,0.841
		c-1.626,0.564-3.08,1.392-4.356,2.484c-1.283,1.099-2.32,2.437-3.093,4.031c-0.785,1.596-1.178,3.424-1.178,5.479v28.022h-8.148
		v-2.811c0-0.755,0.165-1.324,0.515-1.736c0.338-0.405,0.761-0.73,1.264-0.988l0.282-0.282c0.062-0.116,0.129-0.227,0.184-0.325
		c0.068-0.092,0.098-0.264,0.098-0.509V16.542c0-0.191-0.03-0.337-0.098-0.473c-0.055-0.122-0.122-0.245-0.184-0.368l-0.282-0.282
		c-1.19-0.565-1.779-1.473-1.779-2.718v-2.81c0.81,0,1.699,0.171,2.669,0.515c0.969,0.344,1.865,0.792,2.669,1.357
		c0.816,0.564,1.485,1.22,2.019,1.969c0.533,0.748,0.791,1.565,0.791,2.436v17.431c0,0.621,0.282,0.829,0.84,0.608
		c0.571-0.221,1.068-0.516,1.504-0.89c1.123-1.061,2.614-2.061,4.455-3c1.84-0.932,4.141-1.399,6.884-1.399
		c6.811,0,11.799,1.835,14.947,5.522c3.16,3.694,4.737,8.873,4.737,15.561v18.837c0,0.374,0.092,0.65,0.282,0.834
		C92.338,69.808,92.43,69.894,92.553,69.954"/>
	<path clip-path="url(#SVGID_2_)" fill="#FFFFFF" d="M141.247,69.488c0.246,0.129,0.485,0.454,0.706,0.987
		c0.215,0.534,0.405,1.123,0.564,1.78c0.153,0.656,0.264,1.294,0.325,1.92c0.062,0.626,0.093,1.067,0.093,1.313h-3.001
		c-1.307,0-2.393-0.564-3.233-1.688c-0.841-1.123-1.387-2.405-1.639-3.848c-0.061-0.245-0.221-0.417-0.466-0.509
		c-0.252-0.099-0.503-0.019-0.749,0.227c-0.754,0.884-1.656,1.682-2.724,2.394c-1.055,0.724-2.203,1.35-3.412,1.877
		c-1.22,0.528-2.46,0.932-3.706,1.215c-1.251,0.283-2.374,0.394-3.374,0.332c-2.191,0-4.301-0.332-6.326-0.982
		c-2.031-0.662-3.847-1.613-5.443-2.865c-1.583-1.245-2.871-2.768-3.84-4.583c-0.964-1.816-1.442-3.909-1.442-6.283
		c0-2.933,0.546-5.485,1.638-7.639c1.092-2.154,2.571-3.915,4.454-5.296c1.866-1.374,4.044-2.387,6.504-3.043
		c2.473-0.65,5.087-0.981,7.829-0.981c1.621,0,3.234,0.153,4.823,0.466c1.595,0.313,3.105,0.847,4.547,1.596l0.374,0.184
		c0.313,0.123,0.595,0.123,0.847,0c0.245-0.123,0.374-0.405,0.374-0.847c0-0.43-0.012-1.006-0.049-1.73
		c-0.03-0.712-0.08-1.423-0.141-2.11s-0.129-1.264-0.184-1.73c-0.061-0.466-0.129-0.706-0.19-0.706
		c-0.375-0.938-0.951-1.73-1.737-2.387c-0.779-0.65-1.681-1.19-2.712-1.594c-1.037-0.406-2.172-0.688-3.423-0.847
		c-1.252-0.148-2.529-0.234-3.842-0.234c-1.939,0-3.693,0.148-5.252,0.43c-1.558,0.276-3.215,0.669-4.958,1.166
		c-0.509,0.128-0.914,0.184-1.221,0.184c-0.374,0-0.803-0.135-1.27-0.417c-0.46-0.282-0.902-0.639-1.306-1.08
		c-0.406-0.43-0.786-0.86-1.123-1.264c-0.344-0.405-0.614-0.761-0.804-1.08c2.939-1.436,5.577-2.399,7.927-2.897
		c2.338-0.502,4.915-0.785,7.722-0.846c1.881,0,3.703,0.135,5.489,0.417c1.773,0.282,3.454,0.767,5.013,1.454
		c1.558,0.693,2.932,1.59,4.117,2.719c1.19,1.123,2.092,2.528,2.718,4.214c0.442,1.069,0.706,2.204,0.804,3.424
		c0.092,1.222,0.141,2.448,0.141,3.699v24.366c0,0.374,0.086,0.656,0.282,0.847C141.025,69.335,141.125,69.427,141.247,69.488
		 M120.814,69.771c1.632,0,3.289-0.282,4.97-0.841c1.687-0.564,3.203-1.516,4.547-2.853c1.343-1.351,2.448-3.099,3.325-5.253
		c0.878-2.159,1.313-4.829,1.313-8.013c0-0.313-0.129-0.565-0.374-0.749c-1.632-0.878-3.442-1.564-5.436-2.062
		c-2.001-0.497-3.811-0.688-5.437-0.564c-1.816,0-3.577,0.221-5.295,0.656c-1.718,0.436-3.246,1.092-4.59,1.97
		c-1.343,0.871-2.426,2.013-3.239,3.418c-0.804,1.404-1.209,3.073-1.209,5.013c0,1.626,0.325,3.019,0.982,4.166
		c0.65,1.16,1.534,2.117,2.62,2.859c1.092,0.755,2.313,1.319,3.654,1.693C117.985,69.586,119.378,69.771,120.814,69.771"/>
	<path clip-path="url(#SVGID_2_)" fill="#FFFFFF" d="M155.635,75.489v-39.92c0-0.252-0.043-0.441-0.098-0.564
		s-0.123-0.252-0.184-0.374c-0.129-0.129-0.225-0.191-0.282-0.191c-0.56-0.245-1.001-0.626-1.313-1.123s-0.467-0.994-0.467-1.503
		v-2.896c0.811,0,1.688,0.172,2.623,0.51c0.937,0.349,1.813,0.797,2.62,1.362c0.813,0.557,1.482,1.232,2.022,2.011
		c0.527,0.787,0.797,1.578,0.797,2.388v33.648c0,0.436,0.086,0.748,0.276,0.933c0.062,0.123,0.159,0.221,0.282,0.283
		c1.246,0.502,1.877,1.343,1.877,2.527v2.908H155.635z"/>
	<path clip-path="url(#SVGID_2_)" fill="#FFFFFF" d="M192.002,49.437c1.687,0.688,3.43,1.473,5.246,2.344
		c1.811,0.871,3.479,1.89,5.014,3.043c1.527,1.154,2.779,2.479,3.748,3.982c0.97,1.503,1.461,3.222,1.461,5.154
		c0,2.252-0.564,4.154-1.7,5.712c-1.116,1.565-2.54,2.835-4.258,3.799c-1.718,0.969-3.577,1.675-5.577,2.111
		c-1.995,0.435-3.872,0.655-5.621,0.655c-1.877,0-3.804-0.281-5.81-0.847c-2.001-0.564-3.873-1.245-5.627-2.056
		c-0.503,0.313-1.025,0.467-1.589,0.467c-0.56,0-1.093-0.153-1.596-0.467c-0.688-0.497-1.166-0.828-1.451-0.987
		c-0.279-0.153-0.573-0.392-0.894-0.706c0.939-1.43,1.737-2.62,2.4-3.559c0.649-0.938,1.294-1.871,1.914-2.811l6.275,3.657
		c0.688,0.436,1.701,0.792,3.046,1.074c1.349,0.282,2.545,0.423,3.612,0.423c1.437,0,2.811-0.153,4.124-0.472
		c1.307-0.308,2.479-0.762,3.51-1.356c1.03-0.596,1.847-1.276,2.441-2.061c0.589-0.78,0.884-1.64,0.884-2.578
		c0-1.185-0.325-2.203-0.981-3.05c-0.657-0.834-1.516-1.602-2.577-2.287c-1.062-0.694-2.233-1.296-3.51-1.83
		c-1.289-0.533-2.583-1.049-3.891-1.545c-1.503-0.621-3.142-1.345-4.921-2.154c-1.779-0.811-3.423-1.798-4.927-2.958
		c-1.491-1.153-2.755-2.491-3.792-4.025c-1.031-1.533-1.546-3.325-1.546-5.387c0-1.816,0.441-3.498,1.318-5.068
		c0.872-1.559,2.043-2.897,3.511-4.026c1.466-1.122,3.163-2.012,5.104-2.669c1.938-0.656,3.969-0.987,6.099-0.987
		c1.179,0,2.442,0.122,3.792,0.38c1.344,0.245,2.657,0.639,3.934,1.172c1.276,0.528,2.516,1.215,3.706,2.056
		c1.184,0.846,2.221,1.865,3.092,3.049c-0.313,0.374-0.662,0.78-1.036,1.221c-0.368,0.436-0.792,0.792-1.265,1.074
		c-0.466,0.282-0.951,0.436-1.454,0.466c-0.497,0.037-1.024-0.141-1.583-0.516c-1.319-1-2.779-1.76-4.368-2.294
		c-1.59-0.534-3.203-0.797-4.817-0.797c-1.38,0-2.688,0.189-3.938,0.564c-1.252,0.374-2.344,0.871-3.283,1.503
		c-0.933,0.626-1.675,1.374-2.203,2.246c-0.526,0.877-0.797,1.779-0.797,2.718c0,1.123,0.362,2.104,1.079,2.951
		c0.725,0.847,1.608,1.626,2.673,2.344c1.059,0.712,2.236,1.345,3.513,1.872C189.769,48.516,190.935,48.994,192.002,49.437"/>
	<path clip-path="url(#SVGID_2_)" fill="#FFFFFF" d="M284.493,69.954c0.563,0.197,0.981,0.54,1.27,1.031
		c0.277,0.503,0.417,1.037,0.417,1.596v2.908h-7.963v-7.872V45.779c0-1.994-0.362-3.718-1.08-5.154
		c-0.718-1.436-1.645-2.602-2.768-3.51c-1.123-0.907-2.35-1.576-3.699-2.024c-1.344-0.43-2.67-0.651-3.982-0.651
		c-3.872,0-6.915,1.032-9.143,3.093c-2.215,2.062-3.32,5.062-3.32,8.995v21.089v1.221c0,0.374,0.093,0.65,0.283,0.834
		c0.062,0.136,0.153,0.222,0.282,0.282c0.564,0.197,0.994,0.54,1.313,1.031c0.307,0.503,0.466,1.037,0.466,1.596v2.908h-8.148
		v-2.811v-0.098V45.779c0-2.123-0.355-3.915-1.037-5.387c-0.687-1.473-1.589-2.639-2.718-3.517c-1.123-0.871-2.356-1.497-3.7-1.871
		s-2.675-0.565-3.982-0.565c-3.749,0-6.786,1.111-9.087,3.332c-2.319,2.215-3.467,5.197-3.467,8.946v28.771h-8.068v-2.908
		c0-0.559,0.159-1.093,0.473-1.596c0.313-0.491,0.718-0.834,1.215-1.031l0.282-0.282c0.251-0.245,0.38-0.521,0.38-0.834V35.287
		c0-0.313-0.129-0.595-0.38-0.847l-0.282-0.282c-1.123-0.497-1.688-1.374-1.688-2.626v-2.896c0.761,0,1.534,0.123,2.35,0.368
		c0.811,0.252,1.59,0.613,2.338,1.08c0.749,0.467,1.423,1.031,2.013,1.687c0.596,0.657,1.013,1.393,1.271,2.203
		c0.251,0.687,0.626,0.657,1.123-0.098c1.441-1.878,3.202-3.215,5.295-4.026c2.092-0.809,4.228-1.214,6.424-1.214
		c1.313,0,2.663,0.104,4.074,0.325c1.399,0.215,2.767,0.596,4.074,1.123c1.313,0.527,2.51,1.252,3.607,2.153
		c1.093,0.908,2.013,2.05,2.768,3.418c0.123,0.129,0.295,0.221,0.516,0.288c0.215,0.062,0.424-0.067,0.607-0.374
		c1.626-2.313,3.669-4.05,6.136-5.203c2.473-1.153,5.111-1.73,7.922-1.73c2.123,0,4.215,0.343,6.276,1.024
		c2.062,0.693,3.896,1.755,5.484,3.185c1.591,1.442,2.866,3.234,3.842,5.387c0.97,2.161,1.455,4.712,1.455,7.646v21.739v1.221
		c0,0.374,0.092,0.65,0.282,0.834C284.272,69.808,284.371,69.894,284.493,69.954"/>
</g>
</svg>
